<svg width="109" height="40" viewBox="0 0 109 40" fill="none" xmlns="http://www.w3.org/2000/svg">
<g clip-path="url(#clip0_1575_233)">
<path d="M109 0L0 0L0 40H109V0Z" fill="#ED1D24"/>
<path d="M91.6604 9.46039V3.33795L73.7766 3.33795L70.8355 23.7918L67.9252 3.33805L61.476 3.33805L62.1985 8.7958C61.4536 7.39765 58.8131 3.33805 53.0024 3.33805C52.9641 3.33566 46.5444 3.33805 46.5444 3.33805L46.5197 33.1511L41.819 3.33805L33.3727 3.33337L28.5098 34.2238L28.5123 3.33785H20.4287L17.5145 20.6891L14.676 3.33805L6.58975 3.33805L6.58975 36.921H12.9575V20.7341L15.854 36.9206H19.2394L22.0952 20.7341V36.9206H34.3712L35.1161 31.7531H40.0585L40.8009 36.9206L52.8529 36.9277H52.8627V36.9206H52.8702H52.8777V26.0195L54.3552 25.8145L57.414 36.9277H57.4215H63.6405H63.6478L63.6453 36.9206H63.6563H63.6639L59.6499 23.8954C61.684 22.4621 63.9808 18.8221 63.3695 15.3399V15.3377C63.3769 15.3848 67.1583 36.9421 67.1583 36.9421L74.5724 36.9206L79.6384 6.48042V36.9207H91.6607V30.8808H85.954V23.1788H91.6607V17.0469H85.954V9.46039L91.6604 9.46039ZM35.8662 26.4276L37.6145 12.0703L39.4298 26.4276H35.8662ZM54.3759 19.7982C53.8859 20.0246 53.3749 20.1378 52.8774 20.1378V9.33547C52.8861 9.33547 52.8961 9.33328 52.9084 9.33328C53.4071 9.33089 57.1252 9.47699 57.1252 14.6776C57.1252 17.3981 55.8607 19.1122 54.3759 19.7982ZM104.491 30.8761V36.9159H92.7628V3.33337L99.0774 3.33337V30.8761H104.491Z" fill="white"/>
</g>
<defs>
<clipPath id="clip0_1575_233">
<rect width="109" height="40" rx="2" fill="white"/>
</clipPath>
</defs>
</svg>
